<svg id="visual" viewBox="0 0 900 600" width="900" height="600" xmlns="http://www.w3.org/2000/svg" xmlns:xlink="http://www.w3.org/1999/xlink" version="1.1"><g transform="translate(457.81476405856597 294.93122408176987)"><path d="M145.6 -153.3C183.2 -142 204.3 -90.9 198.3 -46.6C192.2 -2.3 158.9 35.1 125.6 53.5C92.3 71.8 59 71.2 22.8 101C-13.5 130.9 -52.6 191.4 -75.2 190.2C-97.8 189.1 -103.9 126.3 -128.5 77.3C-153.1 28.3 -196.2 -7 -210 -55.8C-223.8 -104.7 -208.3 -167.3 -168.4 -178.2C-128.6 -189.2 -64.3 -148.6 -5.1 -142.5C54 -136.3 108 -164.7 145.6 -153.3" fill="#4831d4"></path></g></svg>