<svg id="visual" viewBox="0 0 900 600" width="900" height="600" xmlns="http://www.w3.org/2000/svg" xmlns:xlink="http://www.w3.org/1999/xlink" version="1.1"><rect x="0" y="0" width="900" height="600" fill="#001220"></rect><defs><linearGradient id="grad1_0" x1="33.3%" y1="100%" x2="100%" y2="0%"><stop offset="20%" stop-color="#fbae3c" stop-opacity="1"></stop><stop offset="80%" stop-color="#fbae3c" stop-opacity="1"></stop></linearGradient></defs><defs><linearGradient id="grad1_1" x1="33.3%" y1="100%" x2="100%" y2="0%"><stop offset="20%" stop-color="#fbae3c" stop-opacity="1"></stop><stop offset="80%" stop-color="#f48350" stop-opacity="1"></stop></linearGradient></defs><defs><linearGradient id="grad1_2" x1="33.3%" y1="100%" x2="100%" y2="0%"><stop offset="20%" stop-color="#d96162" stop-opacity="1"></stop><stop offset="80%" stop-color="#f48350" stop-opacity="1"></stop></linearGradient></defs><defs><linearGradient id="grad1_3" x1="33.3%" y1="100%" x2="100%" y2="0%"><stop offset="20%" stop-color="#d96162" stop-opacity="1"></stop><stop offset="80%" stop-color="#af4b6d" stop-opacity="1"></stop></linearGradient></defs><defs><linearGradient id="grad1_4" x1="33.3%" y1="100%" x2="100%" y2="0%"><stop offset="20%" stop-color="#7c3e6b" stop-opacity="1"></stop><stop offset="80%" stop-color="#af4b6d" stop-opacity="1"></stop></linearGradient></defs><defs><linearGradient id="grad1_5" x1="33.3%" y1="100%" x2="100%" y2="0%"><stop offset="20%" stop-color="#7c3e6b" stop-opacity="1"></stop><stop offset="80%" stop-color="#49335c" stop-opacity="1"></stop></linearGradient></defs><defs><linearGradient id="grad1_6" x1="33.3%" y1="100%" x2="100%" y2="0%"><stop offset="20%" stop-color="#1d2540" stop-opacity="1"></stop><stop offset="80%" stop-color="#49335c" stop-opacity="1"></stop></linearGradient></defs><defs><linearGradient id="grad1_7" x1="33.3%" y1="100%" x2="100%" y2="0%"><stop offset="20%" stop-color="#1d2540" stop-opacity="1"></stop><stop offset="80%" stop-color="#001220" stop-opacity="1"></stop></linearGradient></defs><defs><linearGradient id="grad2_0" x1="0%" y1="100%" x2="66.7%" y2="0%"><stop offset="20%" stop-color="#fbae3c" stop-opacity="1"></stop><stop offset="80%" stop-color="#fbae3c" stop-opacity="1"></stop></linearGradient></defs><defs><linearGradient id="grad2_1" x1="0%" y1="100%" x2="66.7%" y2="0%"><stop offset="20%" stop-color="#f48350" stop-opacity="1"></stop><stop offset="80%" stop-color="#fbae3c" stop-opacity="1"></stop></linearGradient></defs><defs><linearGradient id="grad2_2" x1="0%" y1="100%" x2="66.7%" y2="0%"><stop offset="20%" stop-color="#f48350" stop-opacity="1"></stop><stop offset="80%" stop-color="#d96162" stop-opacity="1"></stop></linearGradient></defs><defs><linearGradient id="grad2_3" x1="0%" y1="100%" x2="66.7%" y2="0%"><stop offset="20%" stop-color="#af4b6d" stop-opacity="1"></stop><stop offset="80%" stop-color="#d96162" stop-opacity="1"></stop></linearGradient></defs><defs><linearGradient id="grad2_4" x1="0%" y1="100%" x2="66.7%" y2="0%"><stop offset="20%" stop-color="#af4b6d" stop-opacity="1"></stop><stop offset="80%" stop-color="#7c3e6b" stop-opacity="1"></stop></linearGradient></defs><defs><linearGradient id="grad2_5" x1="0%" y1="100%" x2="66.7%" y2="0%"><stop offset="20%" stop-color="#49335c" stop-opacity="1"></stop><stop offset="80%" stop-color="#7c3e6b" stop-opacity="1"></stop></linearGradient></defs><defs><linearGradient id="grad2_6" x1="0%" y1="100%" x2="66.7%" y2="0%"><stop offset="20%" stop-color="#49335c" stop-opacity="1"></stop><stop offset="80%" stop-color="#1d2540" stop-opacity="1"></stop></linearGradient></defs><defs><linearGradient id="grad2_7" x1="0%" y1="100%" x2="66.7%" y2="0%"><stop offset="20%" stop-color="#001220" stop-opacity="1"></stop><stop offset="80%" stop-color="#1d2540" stop-opacity="1"></stop></linearGradient></defs><g transform="translate(900, 600)"><path d="M-513.8 0C-471.7 -15.6 -429.7 -31.2 -427.9 -52C-426 -72.7 -464.5 -98.6 -459.3 -113.2C-454 -127.7 -405.1 -130.9 -404.9 -153.5C-404.6 -176.2 -452.9 -218.3 -454.9 -238.8C-456.9 -259.2 -412.6 -258 -388.4 -268.1C-364.3 -278.2 -360.5 -299.7 -332.3 -294.4C-304.2 -289.2 -251.8 -257.3 -239.4 -270.2C-227 -283.1 -254.6 -340.8 -255.1 -369.5C-255.5 -398.2 -228.8 -398 -203.5 -387.8C-178.3 -377.7 -154.6 -357.5 -140.1 -369.3C-125.5 -381.1 -120.1 -424.8 -105.8 -429.2C-91.5 -433.5 -68.4 -398.5 -49.3 -406C-30.2 -413.6 -15.1 -463.7 0 -513.8L0 0Z" fill="#0c1c30"></path><path d="M-449.6 0C-412.8 -13.6 -376 -27.3 -374.4 -45.5C-372.8 -63.6 -406.4 -86.3 -401.8 -99C-397.3 -111.8 -354.5 -114.5 -354.3 -134.4C-354 -154.2 -396.3 -191 -398.1 -208.9C-399.8 -226.8 -361 -225.8 -339.9 -234.6C-318.8 -243.5 -315.4 -262.2 -290.8 -257.6C-266.2 -253 -220.3 -225.1 -209.5 -236.4C-198.6 -247.7 -222.8 -298.2 -223.2 -323.3C-223.6 -348.5 -200.2 -348.3 -178.1 -339.4C-156 -330.4 -135.3 -312.8 -122.6 -323.2C-109.8 -333.5 -105 -371.7 -92.6 -375.5C-80.1 -379.3 -59.9 -348.7 -43.1 -355.3C-26.4 -361.9 -13.2 -405.7 0 -449.6L0 0Z" fill="#312c4f"></path><path d="M-385.3 0C-353.8 -11.7 -322.3 -23.4 -320.9 -39C-319.5 -54.5 -348.4 -74 -344.4 -84.9C-340.5 -95.8 -303.8 -98.2 -303.6 -115.2C-303.4 -132.1 -339.7 -163.7 -341.2 -179.1C-342.7 -194.4 -309.4 -193.5 -291.3 -201.1C-273.3 -208.7 -270.4 -224.7 -249.3 -220.8C-228.2 -216.9 -188.8 -193 -179.5 -202.7C-170.2 -212.3 -191 -255.6 -191.3 -277.1C-191.6 -298.7 -171.6 -298.5 -152.7 -290.9C-133.7 -283.2 -116 -268.2 -105.1 -277C-94.1 -285.8 -90 -318.6 -79.3 -321.9C-68.6 -325.1 -51.3 -298.9 -37 -304.5C-22.6 -310.2 -11.3 -347.8 0 -385.3L0 0Z" fill="#623965"></path><path d="M-321.1 0C-294.8 -9.7 -268.5 -19.5 -267.4 -32.5C-266.3 -45.4 -290.3 -61.7 -287 -70.7C-283.8 -79.8 -253.2 -81.8 -253 -96C-252.9 -110.1 -283.1 -136.4 -284.3 -149.2C-285.6 -162 -257.9 -161.3 -242.8 -167.6C-227.7 -173.9 -225.3 -187.3 -207.7 -184C-190.1 -180.7 -157.4 -160.8 -149.6 -168.9C-141.9 -176.9 -159.1 -213 -159.4 -230.9C-159.7 -248.9 -143 -248.8 -127.2 -242.4C-111.5 -236 -96.6 -223.5 -87.5 -230.8C-78.4 -238.2 -75 -265.5 -66.1 -268.2C-57.2 -270.9 -42.8 -249 -30.8 -253.8C-18.9 -258.5 -9.4 -289.8 0 -321.1L0 0Z" fill="#96446e"></path><path d="M-256.9 0C-235.9 -7.8 -214.8 -15.6 -213.9 -26C-213 -36.4 -232.2 -49.3 -229.6 -56.6C-227 -63.9 -202.6 -65.5 -202.4 -76.8C-202.3 -88.1 -226.5 -109.2 -227.5 -119.4C-228.5 -129.6 -206.3 -129 -194.2 -134.1C-182.2 -139.1 -180.2 -149.8 -166.2 -147.2C-152.1 -144.6 -125.9 -128.7 -119.7 -135.1C-113.5 -141.6 -127.3 -170.4 -127.5 -184.8C-127.8 -199.1 -114.4 -199 -101.8 -193.9C-89.2 -188.8 -77.3 -178.8 -70 -184.7C-62.7 -190.6 -60 -212.4 -52.9 -214.6C-45.8 -216.7 -34.2 -199.2 -24.6 -203C-15.1 -206.8 -7.5 -231.8 0 -256.9L0 0Z" fill="#c55469"></path><path d="M-192.7 0C-176.9 -5.8 -161.1 -11.7 -160.4 -19.5C-159.8 -27.3 -174.2 -37 -172.2 -42.4C-170.3 -47.9 -151.9 -49.1 -151.8 -57.6C-151.7 -66.1 -169.9 -81.9 -170.6 -89.5C-171.3 -97.2 -154.7 -96.8 -145.7 -100.5C-136.6 -104.3 -135.2 -112.4 -124.6 -110.4C-114.1 -108.4 -94.4 -96.5 -89.8 -101.3C-85.1 -106.2 -95.5 -127.8 -95.6 -138.6C-95.8 -149.3 -85.8 -149.3 -76.3 -145.4C-66.9 -141.6 -58 -134.1 -52.5 -138.5C-47.1 -142.9 -45 -159.3 -39.7 -160.9C-34.3 -162.6 -25.7 -149.4 -18.5 -152.3C-11.3 -155.1 -5.7 -173.9 0 -192.7L0 0Z" fill="#e9705a"></path><path d="M-128.4 0C-117.9 -3.9 -107.4 -7.8 -107 -13C-106.5 -18.2 -116.1 -24.7 -114.8 -28.3C-113.5 -31.9 -101.3 -32.7 -101.2 -38.4C-101.1 -44 -113.2 -54.6 -113.7 -59.7C-114.2 -64.8 -103.1 -64.5 -97.1 -67C-91.1 -69.6 -90.1 -74.9 -83.1 -73.6C-76.1 -72.3 -62.9 -64.3 -59.8 -67.6C-56.7 -70.8 -63.7 -85.2 -63.8 -92.4C-63.9 -99.6 -57.2 -99.5 -50.9 -97C-44.6 -94.4 -38.7 -89.4 -35 -92.3C-31.4 -95.3 -30 -106.2 -26.4 -107.3C-22.9 -108.4 -17.1 -99.6 -12.3 -101.5C-7.5 -103.4 -3.8 -115.9 0 -128.4L0 0Z" fill="#fa9845"></path><path d="M-64.2 0C-59 -1.9 -53.7 -3.9 -53.5 -6.5C-53.3 -9.1 -58.1 -12.3 -57.4 -14.1C-56.8 -16 -50.6 -16.4 -50.6 -19.2C-50.6 -22 -56.6 -27.3 -56.9 -29.8C-57.1 -32.4 -51.6 -32.3 -48.6 -33.5C-45.5 -34.8 -45.1 -37.5 -41.5 -36.8C-38 -36.1 -31.5 -32.2 -29.9 -33.8C-28.4 -35.4 -31.8 -42.6 -31.9 -46.2C-31.9 -49.8 -28.6 -49.8 -25.4 -48.5C-22.3 -47.2 -19.3 -44.7 -17.5 -46.2C-15.7 -47.6 -15 -53.1 -13.2 -53.6C-11.4 -54.2 -8.6 -49.8 -6.2 -50.8C-3.8 -51.7 -1.9 -58 0 -64.2L0 0Z" fill="#fbae3c"></path></g><g transform="translate(0, 0)"><path d="M513.8 0C436.5 11 359.1 22 365.3 44.4C371.5 66.7 461.2 100.4 463.1 114.2C465.1 127.9 379.2 121.7 357.2 135.5C335.2 149.3 377 183.1 379 198.9C380.9 214.7 342.9 212.4 331.7 228.9C320.4 245.4 336 280.7 316.6 280.5C297.2 280.3 242.7 244.6 240.1 271C237.4 297.3 286.4 385.6 291.9 422.8C297.3 460.1 259.1 446.4 230 438.3C201 430.2 181.1 427.8 159.2 419.8C137.4 411.9 113.5 398.3 94.1 381.6C74.6 364.8 59.4 344.8 44.5 366.3C29.5 387.8 14.8 450.8 0 513.8L0 0Z" fill="#0c1c30"></path><path d="M449.6 0C381.9 9.6 314.2 19.3 319.7 38.8C325.1 58.4 403.6 87.9 405.2 99.9C406.9 111.9 331.8 106.4 312.5 118.5C293.3 130.6 329.9 160.2 331.6 174C333.3 187.9 300 185.9 290.2 200.3C280.4 214.8 294 245.6 277 245.4C260 245.3 212.4 214.1 210 237.1C207.7 260.1 250.6 337.4 255.4 370C260.1 402.6 226.7 390.6 201.3 383.5C175.9 376.4 158.4 374.3 139.3 367.3C120.2 360.4 99.3 348.5 82.3 333.9C65.2 319.2 52 301.7 38.9 320.5C25.8 339.3 12.9 394.4 0 449.6L0 0Z" fill="#312c4f"></path><path d="M385.3 0C327.3 8.3 269.3 16.5 274 33.3C278.6 50 345.9 75.3 347.4 85.6C348.8 95.9 284.4 91.2 267.9 101.6C251.4 111.9 282.8 137.3 284.2 149.2C285.7 161 257.2 159.3 248.7 171.7C240.3 184.1 252 210.5 237.5 210.4C222.9 210.2 182.1 183.5 180 203.2C178 223 214.8 289.2 218.9 317.1C223 345.1 194.3 334.8 172.5 328.7C150.7 322.7 135.8 320.8 119.4 314.9C103 308.9 85.1 298.8 70.5 286.2C55.9 273.6 44.6 258.6 33.4 274.7C22.1 290.9 11.1 338.1 0 385.3L0 0Z" fill="#623965"></path><path d="M321.1 0C272.8 6.9 224.5 13.8 228.3 27.7C232.2 41.7 288.3 62.8 289.5 71.3C290.7 79.9 237 76 223.2 84.7C209.5 93.3 235.7 114.4 236.9 124.3C238.1 134.2 214.3 132.8 207.3 143.1C200.3 153.4 210 175.4 197.9 175.3C185.7 175.2 151.7 152.9 150 169.4C148.4 185.8 179 241 182.4 264.3C185.8 287.6 161.9 279 143.8 273.9C125.6 268.9 113.2 267.4 99.5 262.4C85.8 257.4 71 249 58.8 238.5C46.6 228 37.1 215.5 27.8 228.9C18.5 242.4 9.2 281.7 0 321.1L0 0Z" fill="#96446e"></path><path d="M256.9 0C218.2 5.5 179.6 11 182.7 22.2C185.8 33.4 230.6 50.2 231.6 57.1C232.5 63.9 189.6 60.8 178.6 67.7C167.6 74.6 188.5 91.6 189.5 99.5C190.5 107.3 171.4 106.2 165.8 114.5C160.2 122.7 168 140.3 158.3 140.3C148.6 140.2 121.4 122.3 120 135.5C118.7 148.6 143.2 192.8 145.9 211.4C148.6 230.1 129.5 223.2 115 219.2C100.5 215.1 90.5 213.9 79.6 209.9C68.7 205.9 56.8 199.2 47 190.8C37.3 182.4 29.7 172.4 22.2 183.2C14.8 193.9 7.4 225.4 0 256.9L0 0Z" fill="#c55469"></path><path d="M192.7 0C163.7 4.1 134.7 8.3 137 16.6C139.3 25 173 37.7 173.7 42.8C174.4 48 142.2 45.6 133.9 50.8C125.7 56 141.4 68.7 142.1 74.6C142.8 80.5 128.6 79.7 124.4 85.8C120.2 92 126 105.3 118.7 105.2C111.4 105.1 91 91.7 90 101.6C89 111.5 107.4 144.6 109.4 158.6C111.5 172.5 97.2 167.4 86.3 164.4C75.4 161.3 67.9 160.4 59.7 157.4C51.5 154.4 42.6 149.4 35.3 143.1C28 136.8 22.3 129.3 16.7 137.4C11.1 145.4 5.5 169 0 192.7L0 0Z" fill="#e9705a"></path><path d="M128.4 0C109.1 2.8 89.8 5.5 91.3 11.1C92.9 16.7 115.3 25.1 115.8 28.5C116.3 32 94.8 30.4 89.3 33.9C83.8 37.3 94.3 45.8 94.7 49.7C95.2 53.7 85.7 53.1 82.9 57.2C80.1 61.4 84 70.2 79.2 70.1C74.3 70.1 60.7 61.2 60 67.7C59.3 74.3 71.6 96.4 73 105.7C74.3 115 64.8 111.6 57.5 109.6C50.2 107.6 45.3 106.9 39.8 105C34.3 103 28.4 99.6 23.5 95.4C18.6 91.2 14.9 86.2 11.1 91.6C7.4 97 3.7 112.7 0 128.4L0 0Z" fill="#fa9845"></path><path d="M64.2 0C54.6 1.4 44.9 2.8 45.7 5.5C46.4 8.3 57.7 12.6 57.9 14.3C58.1 16 47.4 15.2 44.6 16.9C41.9 18.7 47.1 22.9 47.4 24.9C47.6 26.8 42.9 26.6 41.5 28.6C40.1 30.7 42 35.1 39.6 35.1C37.1 35 30.3 30.6 30 33.9C29.7 37.2 35.8 48.2 36.5 52.9C37.2 57.5 32.4 55.8 28.8 54.8C25.1 53.8 22.6 53.5 19.9 52.5C17.2 51.5 14.2 49.8 11.8 47.7C9.3 45.6 7.4 43.1 5.6 45.8C3.7 48.5 1.8 56.3 0 64.2L0 0Z" fill="#fbae3c"></path></g></svg>