<svg id="visual" viewBox="0 0 900 600" width="900" height="600" xmlns="http://www.w3.org/2000/svg" xmlns:xlink="http://www.w3.org/1999/xlink" version="1.1"><g transform="translate(456.85913237734405 323.76291318856414)"><path d="M117.8 -195.9C163.1 -154.1 217.5 -139.2 253.5 -103.2C289.5 -67.2 307.1 -10.3 303 46.1C298.8 102.5 273 158.3 233.1 199.2C193.3 240 139.5 265.8 87.6 266.6C35.7 267.4 -14.3 243.1 -73.4 233.3C-132.5 223.6 -200.8 228.3 -250 200.5C-299.1 172.6 -329.2 112.2 -312.8 60.3C-296.4 8.5 -233.5 -34.7 -196.3 -78.7C-159.1 -122.6 -147.7 -167.3 -119.3 -216.8C-90.8 -266.3 -45.4 -320.7 -4.6 -313.5C36.2 -306.4 72.4 -237.7 117.8 -195.9" fill="#BB004B"></path></g></svg>