<svg id="visual" viewBox="0 0 900 600" width="900" height="600" xmlns="http://www.w3.org/2000/svg" xmlns:xlink="http://www.w3.org/1999/xlink" version="1.1"><g transform="translate(396.13711309914254 368.95364539413026)"><path d="M189.1 -221.1C263 -163.4 353.1 -120.8 374.8 -57.3C396.5 6.2 349.8 90.6 284.8 128.1C219.9 165.5 136.6 156.1 73.1 162.6C9.6 169.1 -34.2 191.7 -93 196.1C-151.9 200.5 -225.8 186.7 -255.9 143.4C-286.1 100.1 -272.6 27.2 -234.7 -16C-196.8 -59.2 -134.5 -72.7 -91.4 -135.7C-48.2 -198.8 -24.1 -311.4 16.8 -331.4C57.6 -351.4 115.3 -278.7 189.1 -221.1" fill="#4831d4"></path></g></svg>